<svg xmlns="http://www.w3.org/2000/svg" xmlns:xlink="http://www.w3.org/1999/xlink" width="740.245" height="712.818" xmlns:v="https://vecta.io/nano"><style><![CDATA[.B{fill:#ccc}.C{fill:#2f2e41}.D{fill:#feb8b8}.E{fill:#e6e6e6}]]></style><path d="M173.504 481.565a10.82 10.82 0 0 1-19.58-8.858l-41.809-85.893 20.013-12.136 36.107 91.236q.207.08.408.169.201.089.4.184l.4.2c.134.067.264.142.39.223 5.12 3.091 6.767 9.746 3.678 14.868z" class="D"/><path d="M120.096 419.933l29.7-7.613-2.546-5.824-6.255-14.446-7.91-18.525-7.494-18.063c-2.194-5.438-4.7-8.7-7.207-10.521a9.91 9.91 0 0 0-7.283-1.936c-2.011.3-3.934 1.031-5.635 2.145a15.34 15.34 0 0 0-2.262 1.717l-6.886 12.523z" class="B"/><path d="M90.581 651.279l18.176-.071-5.861 47.494-12.315.062z" class="D"/><path d="M87.441 710.713l39.687-.21v-.5c0-1.019-.101-2.035-.3-3.034-.39-1.971-1.168-3.845-2.288-5.513-1.138-1.691-2.596-3.142-4.292-4.271-1.674-1.113-3.552-1.882-5.525-2.264-1-.192-2.017-.286-3.036-.28h0l-24.25.119z" class="C"/><path d="M148.779 651.055l18.124-.071-5.842 47.429-12.281.062z" class="D"/><path d="M145.648 710.405l39.583-.208v-.5c-.001-1.017-.101-2.032-.3-3.029a15.17 15.17 0 0 0-2.282-5.506 15.54 15.54 0 0 0-4.282-4.267 15.13 15.13 0 0 0-5.51-2.259 15.5 15.5 0 0 0-3.028-.279h0l-24.183.118zm3.901-253.47l30.477 113.737-11.156 109.026-24.7.681 5.378-98.444-30.815-49.129-6.683 148.242-22.409-1.583L77.18 552.006a144.74 144.74 0 0 1-9.256-30.992c-1.507-8.355-2.24-16.831-2.19-25.321.025-5.715.465-11.421 1.314-17.073a62.5 62.5 0 0 1 1.231-6.26l9.087-9.212z" class="C"/><path d="M109.169 475.958c5.125 0 9.935-.164 14.3-.489a107.34 107.34 0 0 0 13.268-1.746c3.731-.697 7.364-1.841 10.821-3.407 2.783-1.202 5.203-3.112 7.019-5.539l.208-.3-8.33-54.214-8.983-60.957c-1.222-8.352-8.513-14.46-16.95-14.2l-28.134.862a15.77 15.77 0 0 0-15.278 16.243q.007.238.022.476l3.693 60.622-13.623 59.8.965.135 4.225.512 9.29.922a370.64 370.64 0 0 0 12.769.885 299.51 299.51 0 0 0 14.718.395z" class="B"/><path d="M124.781 324.336h.022a4.5 4.5 0 0 0 4.492-4.5v-25.081a33.52 33.52 0 0 0-2.644-13.082 34.06 34.06 0 0 0-17.9-17.99 33.54 33.54 0 0 0-46.761 30.772v25.121a4.5 4.5 0 0 0 .356 1.76c.462 1.086 1.325 1.952 2.41 2.416a4.52 4.52 0 0 0 1.761.363l58.264.221z" class="C"/><path d="M80.45 286.153c-4.799 8.766-3.85 19.559 2.406 27.352s16.588 11.054 26.184 8.264c6.278-1.803 11.572-6.044 14.702-11.777 4.787-8.762 3.836-19.543-2.413-27.33s-16.567-11.052-26.158-8.276c-6.282 1.797-11.583 6.035-14.719 11.768z" class="D"/><path d="M137.251 296.797c.003-3.554-.708-7.072-2.092-10.346-2.709-6.387-7.778-11.483-14.152-14.224a26.53 26.53 0 0 0-10.346-2.144l-5.02-.025h-.169c-14.62.009-26.464 11.868-26.455 26.488v.5l10.62.043 3.621-10.117.724 10.137 5.485.024 1.826-5.1.366 5.111 35.587.159z" class="C"/><path d="M180.007 349.563a11.65 11.65 0 0 1 4.48 2.2c1.029.815 1.909 1.802 2.6 2.917a11.84 11.84 0 0 1 1.711 7.385 11.34 11.34 0 0 1-1.046 3.761 11.53 11.53 0 0 1-16.556 4.856q-.153-.1-.3-.2-.147-.1-.294-.207-.145-.106-.286-.215-.141-.109-.279-.222l-58.6 20.857c-3.704 1.317-7.833.028-10.129-3.164l-13.899-19.237 16.8-11.311 8.812 10.011 53.632-10.669q.088-.209.182-.415.094-.206.2-.411.1-.2.214-.406.114-.206.233-.4a11.52 11.52 0 0 1 12.527-5.128z" class="D"/><path d="M112.076 360.677c-1.753-2.188-4.2-5.028-6.694-7.846l-6.924-7.7-3.189-3.473a13.81 13.81 0 0 0-25.087 10.189 13.61 13.61 0 0 0 2.06 5.048 1687.47 1687.47 0 0 0 4.8 6.236l10.642 13.648 10.86 13.488c3.032 3.629 5.167 5.974 5.467 5.773l10.577-31.442c.299-.202-.759-1.733-2.512-3.921z" class="B"/><path d="M105.797 323.545c.166.811.102 1.652-.186 2.428-.145.397-.344.772-.593 1.114-.213.291-.459.557-.734.79-.815.689-1.849 1.065-2.916 1.06q-.1 0-.2-.006-.1-.006-.2-.014-.1-.008-.2-.022-.1-.014-.2-.032l-3.769-.685-5.192-11.092v10.16l-17.138-3.085v-43.116l28.73.138-.71.825a19.76 19.76 0 0 0-4.474 9.724 32.21 32.21 0 0 0 .207 10.957 58.1 58.1 0 0 0 3.059 10.7 85.61 85.61 0 0 0 4.086 8.97c.198.373.343.772.43 1.186z" class="C"/><path d="M739.154 712.818H0v-2.105h740.245z" fill="#cacaca"/><path d="M543.235 168.892h-3.9V61.915C539.335 27.72 511.615 0 477.42 0H250.77c-16.421 0-32.169 6.523-43.781 18.134s-18.135 27.359-18.135 43.78v586.884c0 34.195 27.72 61.915 61.915 61.915h226.648c34.195 0 61.915-27.72 61.915-61.915V245.04h3.9z" fill="#3f3d56"/><path d="M526.708 57.768v595.175c-.004 25.925-21.017 46.943-46.942 46.952h-231.3c-25.936.004-46.965-21.016-46.973-46.952V57.768c.008-25.935 21.036-46.954 46.971-46.951h28.058a22.33 22.33 0 0 0 20.656 30.74h131.868a22.33 22.33 0 0 0 20.656-30.74h30.055c25.925.004 46.942 21.017 46.951 46.942z" fill="#fff"/><path d="M366.58 295.874c-54.838.02-99.312-44.416-99.337-99.254v-.088c0-.208 0-.427.012-.635.3-54.4 44.863-98.7 99.325-98.7 54.862-.003 99.339 44.469 99.342 99.332s-44.469 99.339-99.331 99.342h-.011zm0-196.587c-53.434.119-96.807 43.244-97.233 96.677-.011.222-.011.4-.011.569-.007 53.714 43.532 97.263 97.246 97.27s97.263-43.532 97.27-97.246-43.532-97.263-97.246-97.27h-.026z" class="B"/><path d="M469.302 400.317H263.765a3.81 3.81 0 0 1-3.806-3.806v-50.984a3.81 3.81 0 0 1 3.806-3.806h205.537a3.81 3.81 0 0 1 3.806 3.806v50.985a3.81 3.81 0 0 1-3.806 3.806zm-205.537-57.074c-1.261.001-2.283 1.023-2.284 2.284v50.985c.001 1.261 1.023 2.283 2.284 2.284h205.537c1.261-.001 2.283-1.023 2.284-2.284v-50.985c-.001-1.261-1.023-2.283-2.284-2.284z" class="E"/><circle cx="290.408" cy="371.018" r="15.986" class="B"/><g class="E"><use xlink:href="#B"/><use xlink:href="#B" y="15.985"/><path d="M469.302 485.576H263.765a3.81 3.81 0 0 1-3.806-3.806v-50.984a3.81 3.81 0 0 1 3.806-3.806h205.537a3.81 3.81 0 0 1 3.806 3.806v50.985a3.81 3.81 0 0 1-3.806 3.805zm-205.537-57.074c-1.261.001-2.283 1.023-2.284 2.284v50.985c.001 1.261 1.023 2.283 2.284 2.284h205.537c1.261-.001 2.283-1.023 2.284-2.284v-50.985c-.001-1.261-1.023-2.283-2.284-2.284z"/></g><circle cx="290.408" cy="456.278" r="15.986" class="B"/><g class="E"><use xlink:href="#C"/><use xlink:href="#C" y="15.989"/><path d="M469.302 570.834H263.765a3.81 3.81 0 0 1-3.806-3.806v-50.984a3.81 3.81 0 0 1 3.806-3.806h205.537a3.81 3.81 0 0 1 3.806 3.806v50.985a3.81 3.81 0 0 1-3.806 3.806zM263.765 513.76c-1.261.001-2.283 1.023-2.284 2.284v50.985c.001 1.261 1.023 2.283 2.284 2.284h205.537c1.261-.001 2.283-1.023 2.284-2.284v-50.985c-.001-1.261-1.023-2.283-2.284-2.284z"/></g><circle cx="290.408" cy="541.537" r="15.986" class="B"/><g class="E"><use xlink:href="#D"/><use xlink:href="#D" y="15.987"/></g><path d="M243.369 432.475h37.893c2.37-17.488-2.859-33.814 0-45.472h-37.893q-10.701 22.738 0 45.472z" fill="#ff6584"/><path d="M489.38 520.222h-37.894c1.421-17.484 6-33.811 0-45.472h37.893q10.702 22.735.001 45.472zm-70.092 88.101h-37.894c1.421-17.484 6-33.811 0-45.472h37.893q10.702 22.735.001 45.472zm-1.942-326.107c-31.825 19.306-72.035 18.056-102.6-3.189a38.67 38.67 0 0 1 34.9-22.069h31.458a38.63 38.63 0 0 1 36.244 25.262z" fill="#151516"/><path d="M323.669 191.019c4.758-15.163 15.578-29.07 30.541-34.2s41.068-.335 48.125 13.894c10.169 20.507 5.6 45.62.208 67.885l-8.5-.372-4.026-13.419v13.287c-22.215-.687-45.343-.257-68.483.188-2.07-15.76-2.623-32.1 2.135-47.263z" class="C"/><circle cx="356.271" cy="205.762" r="34.067" class="D"/><path d="M334.05 164.717a40.31 40.31 0 0 1 61.283 35.179c-17.939.825-36.783 1.04-55.89 1.077l-4.519-11.053-2.662 11.06q-8.733 0-17.5-.023a41.16 41.16 0 0 1 19.288-36.24z" class="C"/><g fill="#f0f0f0"><path d="M674.283 680.652a106.36 106.36 0 0 1-4.968 29.4l-.214.659h-18.543l.059-.659c1.236-14.213 8.364-100.716-.158-115.509.746 1.201 25.258 40.948 23.824 86.109z"/><path d="M671.307 709.334l-1.007 1.379h-29.088l.772-1.379c4.806-8.674 19.029-34.6 32.233-61.487 14.189-28.889 27.206-58.873 26.11-69.726.337 2.448 10.152 77.062-29.02 131.213z"/></g><defs ><path id="B" d="M327.329 360.361c-1.472 0-2.664 1.193-2.664 2.664s1.193 2.664 2.664 2.664h125.605c1.471.056 2.709-1.09 2.765-2.561s-1.09-2.709-2.561-2.765q-.059-.002-.117-.002H327.329z"/><path id="C" d="M327.329 445.617c-1.472 0-2.664 1.193-2.664 2.664s1.193 2.664 2.664 2.664h125.605c1.449-.008 2.626-1.173 2.65-2.621s-1.115-2.651-2.563-2.707H327.329z"/><path id="D" d="M327.329 530.878c-1.472 0-2.664 1.193-2.664 2.664s1.193 2.664 2.664 2.664h125.605c1.471.056 2.709-1.09 2.765-2.561s-1.09-2.709-2.561-2.765q-.058-.002-.117-.002H327.329z"/></defs></svg>